<svg width="1054" height="692" viewBox="0 0 1054 692" fill="none" xmlns="http://www.w3.org/2000/svg">
<g clip-path="url(#clip0_9_81)">
<path d="M895.257 427.778C894.482 427.817 893.714 427.594 893.058 427.14C892.402 426.686 891.889 426.022 891.59 425.239C891.29 424.455 891.218 423.59 891.383 422.761C891.548 421.931 891.943 421.177 892.513 420.601L892.772 419.473C892.738 419.382 892.704 419.292 892.669 419.202C891.888 417.184 890.579 415.463 888.906 414.256C887.233 413.049 885.272 412.409 883.267 412.417C881.263 412.425 879.306 413.081 877.642 414.302C875.977 415.522 874.68 417.254 873.912 419.278C870.844 427.358 866.938 435.452 865.977 443.995C865.553 447.771 865.732 451.599 866.505 455.308C859.299 438.12 855.557 419.439 855.533 400.531C855.532 395.786 855.773 391.045 856.255 386.33C856.654 382.464 857.207 378.626 857.915 374.815C861.777 354.14 870.069 334.761 882.11 318.27C887.938 314.793 892.651 309.446 895.614 302.949C896.687 300.614 897.446 298.121 897.866 295.548C897.209 295.642 895.387 284.694 895.883 284.022C894.967 282.502 893.327 281.746 892.327 280.263C887.35 272.885 880.494 274.173 876.915 284.199C869.269 288.419 869.195 295.417 873.887 302.148C876.872 306.43 877.282 312.224 879.901 316.809C879.631 317.186 879.351 317.551 879.082 317.928C874.156 324.854 869.864 332.291 866.265 340.132C867.14 331.347 866.096 322.461 863.218 314.204C860.301 306.509 854.833 300.028 850.018 293.376C844.235 285.385 832.376 288.872 831.357 299.002C831.347 299.1 831.337 299.198 831.328 299.296C832.043 299.737 832.743 300.205 833.428 300.701C834.288 301.329 834.955 302.228 835.341 303.278C835.727 304.328 835.813 305.481 835.589 306.586C835.365 307.691 834.842 308.696 834.087 309.47C833.331 310.243 832.38 310.75 831.357 310.922L831.252 310.94C831.507 313.758 831.958 316.552 832.6 319.295C826.423 345.417 839.758 354.931 858.799 355.358C859.219 355.594 859.629 355.83 860.049 356.054C856.434 367.258 854.166 378.929 853.303 390.773C852.814 397.76 852.843 404.78 853.389 411.762L853.356 411.515C851.977 403.75 848.189 396.744 842.633 391.68C834.381 384.267 822.722 381.537 813.819 375.579C812.873 374.915 811.773 374.56 810.649 374.557C809.524 374.554 808.423 374.903 807.474 375.562C806.525 376.221 805.768 377.164 805.292 378.278C804.817 379.392 804.643 380.632 804.79 381.85C804.802 381.937 804.814 382.024 804.827 382.111C806.154 382.702 807.446 383.383 808.696 384.149C809.411 384.591 810.111 385.059 810.796 385.554C811.656 386.183 812.323 387.081 812.709 388.131C813.094 389.181 813.181 390.334 812.957 391.439C812.733 392.544 812.209 393.549 811.454 394.323C810.699 395.097 809.748 395.603 808.725 395.776L808.62 395.793C808.545 395.805 808.48 395.817 808.405 395.829C810.672 401.749 813.855 407.199 817.813 411.939C821.675 434.742 838.264 436.905 856.008 430.265H856.018C857.965 439.516 860.786 448.521 864.435 457.135H894.504C894.612 456.77 894.709 456.393 894.806 456.027C892.022 456.219 889.228 456.037 886.485 455.485C888.716 452.492 890.947 449.475 893.178 446.481C893.228 446.425 893.275 446.366 893.318 446.305C894.45 444.773 895.592 443.252 896.724 441.72L896.724 441.718C896.785 437.022 896.292 432.337 895.258 427.778L895.257 427.778Z" fill="#A5A78B"/>
<path d="M985.307 512.981H750.958C734.994 512.981 719.684 519.916 708.396 532.259C697.108 544.603 690.767 561.345 690.767 578.802V688.499H709.65V627.968C709.65 610.512 715.991 593.77 727.279 581.426C738.567 569.082 753.877 562.148 769.841 562.148H966.424C982.388 562.148 997.698 569.082 1008.99 581.426C1020.27 593.77 1026.62 610.512 1026.62 627.968V688.499H1045.5V578.802C1045.5 561.345 1039.16 544.603 1027.87 532.259C1016.58 519.916 1001.27 512.981 985.307 512.981Z" fill="#727458"/>
<path d="M869.481 541.005C903.375 541.005 930.851 536.713 930.851 531.418C930.851 526.123 903.375 521.831 869.481 521.831C835.588 521.831 808.111 526.123 808.111 531.418C808.111 536.713 835.588 541.005 869.481 541.005Z" fill="#D2D3BA"/>
<path d="M915.875 533.822H834.133C813.954 512.674 799.526 492.293 811.077 475.376C811.077 470.513 812.844 465.849 815.988 462.41C819.133 458.971 823.398 457.04 827.845 457.04H922.163C926.61 457.04 930.875 458.971 934.02 462.41C937.164 465.849 938.931 470.513 938.931 475.376C943.329 494.652 935.472 514.137 915.875 533.822Z" fill="#35362D"/>
<path d="M644.85 217.894C547.322 157.392 584.638 1.59434 477.504 51.2257C338.387 14.9975 417.462 166.321 293.972 217.894C288.317 217.894 282.717 219.112 277.492 221.479C272.267 223.846 267.52 227.315 263.521 231.688C259.522 236.061 256.35 241.252 254.185 246.966C252.021 252.679 250.907 258.803 250.907 264.987V264.987C250.907 271.311 252.072 277.57 254.332 283.391C256.592 289.212 259.9 294.475 264.061 298.867C268.221 303.26 273.148 306.691 278.547 308.956C283.946 311.221 289.707 312.274 295.486 312.051L311.603 311.431V459.785H627.22V311.431L643.336 312.051C649.116 312.274 654.877 311.221 660.276 308.956C665.675 306.691 670.601 303.26 674.762 298.867C678.922 294.475 682.231 289.212 684.491 283.391C686.75 277.57 687.915 271.311 687.915 264.987V264.987C687.915 258.803 686.801 252.679 684.637 246.966C682.473 241.252 679.301 236.061 675.302 231.688C671.303 227.315 666.555 223.846 661.33 221.479C656.105 219.112 650.505 217.894 644.85 217.894V217.894Z" fill="#6D6E59"/>
<path d="M614.741 529.108H320.035C316.726 529.108 313.552 530.545 311.211 533.104C308.871 535.664 307.556 539.135 307.556 542.754V562.66C307.556 566.279 308.871 569.75 311.211 572.309C313.552 574.868 316.726 576.306 320.035 576.306H342.625V691.351H358.81V576.306H569.222V691.351H585.407V576.306H614.741C618.05 576.306 621.224 574.868 623.565 572.309C625.905 569.75 627.22 566.279 627.22 562.66V542.754C627.22 539.135 625.905 535.664 623.565 533.105C621.224 530.545 618.05 529.108 614.741 529.108V529.108Z" fill="#525346"/>
<path d="M675.436 496.659H666.401C669.014 491.729 670.387 486.132 670.381 480.435V291.642C670.381 283.036 667.255 274.782 661.69 268.697C656.125 262.611 648.577 259.193 640.708 259.193C632.838 259.193 625.29 262.611 619.725 268.697C614.16 274.782 611.034 283.036 611.034 291.642V447.683C388.897 413.563 533.661 413.908 333.183 448.769V291.642C333.183 283.036 330.057 274.782 324.492 268.697C318.927 262.611 311.38 259.193 303.51 259.193C295.64 259.193 288.093 262.611 282.528 268.697C276.963 274.782 273.837 283.036 273.837 291.642V480.435C273.831 486.132 275.204 491.729 277.816 496.659H259.34C256.03 496.659 252.856 498.097 250.516 500.656C248.176 503.215 246.861 506.686 246.861 510.305V530.211C246.861 533.83 248.176 537.301 250.516 539.86C252.856 542.419 256.03 543.857 259.34 543.857H675.436C678.746 543.857 681.92 542.419 684.26 539.86C686.6 537.301 687.915 533.83 687.915 530.211V510.305C687.915 506.686 686.6 503.215 684.26 500.656C681.92 498.097 678.746 496.659 675.436 496.659Z" fill="#777963"/>
<path d="M256.368 303.847C261.609 304.37 266.831 302.635 270.921 299.012C275.011 295.39 277.647 290.165 278.268 284.449C278.378 283.285 278.399 282.113 278.332 280.945L401.895 214.093L371.878 174.869L255.938 261.321C251.532 262.001 247.455 264.257 244.344 267.738C241.234 271.218 239.264 275.726 238.743 280.559C238.193 286.119 239.685 291.691 242.891 296.048C246.098 300.405 250.756 303.191 255.84 303.792C256.016 303.813 256.192 303.831 256.368 303.847Z" fill="#D2D3BA"/>
<path d="M527.886 182.527C527.886 182.527 539.886 156.491 502.419 147.043C464.951 137.596 395.777 169.409 392.257 173.042C388.737 176.676 393.31 171.741 382.178 169.848C376.833 168.939 366.164 159.05 363.973 167.372C361.782 175.693 362.387 185.686 355.976 177.597C349.565 169.507 374.828 246.762 374.828 246.762C374.828 246.762 378.089 246.189 389.645 239.489C396.136 235.726 396.205 220.1 400.547 224.471C404.89 228.842 443.5 228.1 445.67 227.524C447.84 226.948 457.568 207.36 457.568 207.36L527.886 182.527Z" fill="#35362D"/>
<path d="M327.096 667.03L306.526 662.34L313.274 573.343L343.635 580.264L327.096 667.03Z" fill="#D2D3BA"/>
<path d="M323.348 690.662L260.09 676.244L260.257 675.37C261.618 668.229 265.517 661.972 271.097 657.975C276.676 653.978 283.479 652.568 290.009 654.056L290.011 654.056L303.393 647.103L323.125 661.603L328.647 662.862L323.348 690.662Z" fill="#2F2E41"/>
<path d="M681.28 563.877L701.755 558.706L693.257 469.888L663.041 477.519L681.28 563.877Z" fill="#D2D3BA"/>
<path d="M685.492 587.416L748.453 571.515L748.269 570.644C746.768 563.537 742.746 557.373 737.089 553.508C731.432 549.643 724.603 548.394 718.104 550.035L718.102 550.035L704.587 543.398L685.145 558.359L679.648 559.747L685.492 587.416Z" fill="#2F2E41"/>
<path d="M439.738 359.489L436.207 403.172C436.207 403.172 321.535 362.9 320.14 457.63C319.696 487.809 307.556 604.33 307.556 604.33L342.625 610.23C342.625 610.23 361.508 579.256 361.508 568.931C361.508 558.607 380.391 483.384 380.391 483.384L478.808 472.799C582.71 465.685 615.08 462.735 638.01 381.613C638.01 381.613 651.989 490.149 659.836 498.566C667.683 506.983 673.492 498.616 663.844 509.437C654.195 520.258 647.451 515.833 654.195 520.258C660.939 524.683 701.403 517.308 701.403 517.308C710.44 518.416 698.851 360.265 668.566 313.592C641.542 271.943 548.301 402.82 548.301 402.82L439.738 359.489Z" fill="#35362D"/>
<path d="M561.243 173.673C561.243 173.673 596.294 169.322 603.76 187.691C611.225 206.06 630.04 244.309 630.04 244.309C630.04 244.309 620.392 248.804 630.245 237.127C634.661 231.894 626.512 235.086 632.112 233.045C637.711 231.004 639.577 233.045 639.577 233.045L658.242 267.742C658.242 267.742 656.74 275.649 647.043 275.906C637.346 276.163 652.642 265.701 639.577 279.988C632.831 287.365 608.337 297.541 608.337 297.541L545.723 234.618L561.243 173.673Z" fill="#35362D"/>
<path d="M450.711 155.035L486.137 144.996L502.674 120.055L541.946 125.335L550.306 159.355L578.265 177.101C578.265 177.101 562.812 355.837 566.488 365.651C570.163 375.465 561.244 383.675 549.988 396.326C538.732 408.978 559.34 394.861 561.952 408.635C564.564 422.408 583.604 436.985 561.952 436.84C540.3 436.695 421.203 443.27 424.936 426.942C428.669 410.614 417.056 406.145 422.685 395.907C428.314 385.67 432.102 391.391 430.208 376.284C428.314 361.178 430.18 350.973 430.18 342.809C430.18 334.645 436.434 260.456 436.434 260.456L450.711 155.035Z" fill="#21221C"/>
<path d="M577.984 437.147C584.741 450.332 546.684 454.21 505.454 452.434C504.657 449.095 503.337 445.933 501.553 443.086C496.999 435.861 502.505 386.979 495.861 382.039C498.866 389.999 486.715 442.903 484.177 451.046C446.885 447.781 412.897 440.372 413.308 431.554C413.42 428.983 421.203 379.998 424.973 376.284C428.725 372.569 424.936 302.44 424.973 287.397C424.992 272.335 445.467 161.609 445.467 157.527C445.467 153.445 493.994 133.035 493.994 133.035L514.525 261.619L545.732 140.709C548.784 145.246 552.31 149.377 556.24 153.017C562.493 158.711 587.317 182.019 587.317 182.019L566.058 354.036C566.058 354.036 576.118 379.998 575.595 390.305C575.393 398.484 573.923 406.565 571.247 414.206C568.223 423.901 568.54 418.696 577.984 437.147Z" fill="#35362D"/>
<path d="M611.377 81.7098C615.266 85.5882 617.618 90.9732 617.932 96.7188C618.246 102.464 616.497 108.117 613.058 112.474C612.346 113.348 611.569 114.156 610.735 114.889L648.969 259.73L602.24 261.961L582.381 110.052C579.868 106.036 578.64 101.224 578.891 96.3649C579.142 91.5061 580.856 86.8748 583.767 83.1936C585.442 81.1164 587.474 79.4202 589.748 78.2018C592.023 76.9835 594.494 76.2669 597.021 76.093C599.549 75.9191 602.083 76.2913 604.478 77.1883C606.874 78.0853 609.085 79.4895 610.985 81.3208C611.117 81.4485 611.248 81.5782 611.377 81.7098Z" fill="#D2D3BA"/>
<path d="M594.881 249.603C596.373 248.303 642.876 231.793 642.876 231.793C642.876 231.793 662.626 263.925 650.691 274.323C638.756 284.72 612.684 287.431 612.684 287.431C612.684 287.431 601.73 280.691 601.987 272.748C602.245 264.805 594.881 249.603 594.881 249.603Z" fill="#35362D"/>
<path d="M566.107 100.722L571.162 60.0134C571.863 54.3686 575.389 50.6619 579.023 51.7509L588.059 54.4593C591.693 55.5483 594.079 61.027 593.378 66.6718L588.323 107.381C587.622 113.026 584.095 116.732 580.462 115.643L571.425 112.935C567.792 111.846 565.406 106.367 566.107 100.722Z" fill="#22231D"/>
<path d="M568.611 98.3579L573.763 61.1195C574.477 55.9559 577.048 52.6785 579.494 53.8139L585.575 56.6376C588.021 57.773 589.429 62.8979 588.715 68.0616L583.563 105.3C582.848 110.464 580.278 113.741 577.832 112.606L571.75 109.782C569.305 108.647 567.897 103.522 568.611 98.3579Z" fill="#21221C"/>
<path d="M472.493 59.6789C476.007 90.6777 495.649 116.237 524.214 116.237C531.006 116.237 537.731 114.774 544.006 111.932C550.281 109.089 555.983 104.923 560.785 99.6713C565.588 94.4195 569.398 88.1846 571.997 81.3227C574.596 74.4608 575.934 67.1062 575.934 59.6789C575.934 28.443 552.656 6.0091 524.214 3.12119C494.035 0.0569359 467.983 19.8804 472.493 59.6789Z" fill="#23241D"/>
<path d="M529.931 119.595C555.26 119.595 575.794 97.1408 575.794 69.4421C575.794 41.7433 555.26 19.2891 529.931 19.2891C504.601 19.2891 484.067 41.7433 484.067 69.4421C484.067 97.1408 504.601 119.595 529.931 119.595Z" fill="#D2D3BA"/>
<path d="M482.439 74.906C483.892 85.8043 492.386 101.01 490.396 101.01C488.407 101.01 474.264 56.0824 488.407 53.153C498.666 51.0282 500.959 52.892 510.547 48.3456L509.195 49.7378C515.54 54.7845 524.373 51.6738 531.613 48.3891C538.874 45.1262 547.687 42.0155 554.052 47.0405C558.051 50.1946 559.741 55.6763 562.228 60.3315C564.714 65.0084 569.31 69.4242 574.044 67.9886C577.844 66.8356 580.032 62.1804 580.012 57.8734C579.992 53.5664 574.863 49.469 576.59 45.6047C581.709 34.153 577.106 26.3473 565.948 20.9587C561.89 20.2843 557.832 19.5955 553.774 18.8921C555.9 15.6712 558.478 12.8375 561.412 10.4955C559.901 7.12366 558.17 3.73018 555.246 1.85945C552.003 -0.250513 547.985 -0.0983432 544.225 0.119255C535.831 0.597757 527.443 1.07629 519.061 1.55488C512.855 1.90297 506.43 2.31631 500.88 5.42697C493.957 9.32071 489.422 16.9125 486.12 24.6349C478.72 41.9938 479.893 55.9593 482.439 74.906Z" fill="#23241D"/>
<path d="M209.063 693.504C209.062 693.735 209.103 693.963 209.183 694.177C209.264 694.39 209.382 694.584 209.531 694.747C209.68 694.91 209.858 695.039 210.053 695.127C210.248 695.215 210.457 695.26 210.668 695.259H1438.46C1438.88 695.259 1439.29 695.074 1439.59 694.745C1439.89 694.416 1440.06 693.97 1440.06 693.504C1440.06 693.039 1439.89 692.592 1439.59 692.263C1439.29 691.934 1438.88 691.749 1438.46 691.749H210.668C210.457 691.748 210.248 691.793 210.053 691.881C209.858 691.969 209.68 692.098 209.531 692.261C209.382 692.424 209.264 692.618 209.183 692.831C209.103 693.045 209.062 693.273 209.063 693.504Z" fill="#A5A78B"/>
</g>
<defs>
<clipPath id="clip0_9_81">
<rect width="1231" height="692" fill="white"/>
</clipPath>
</defs>
</svg>
